<?xml version="1.0" encoding="UTF-8"?><svg id="Layer_7" xmlns="http://www.w3.org/2000/svg" viewBox="0 0 2292 1171.37"><g id="PXGw4D.tif"><path d="m417.05,791.6c1.45,48.03,1.22,96.21,5.54,143.98,1.06,11.71,14.89,26.41,26.55,32.01,16.16,7.76,29.31-4.34,35.16-20.06,4.7-12.61,8.78-26.21,9.2-39.49,1.21-38.51.43-77.07.43-119.07,8.62,3.63,19.33,6.2,27.64,12.14,9.7,6.93,18.05,16.19,25.64,25.53,14.27,17.56,31.04,26.57,53.52,19.46,4.83-10.88,9.69-21.85,14.85-33.48-22.66-22.31-45.54-43.19-66.49-65.87-25.88-28.02-48.59-58.45-85.62-74.72-12.23-5.37-19.75-5.82-27.49,1.8-45.12,44.43-90.05,89.07-134.21,134.45-9.2,9.45-7.64,20.31,5.97,27.31,7.59,3.9,14.32,9.48,24.99,16.72,24.56-19.75,51.31-41.26,78.07-62.78,2.08.69,4.15,1.37,6.23,2.06Z" fill="#fefefe"/><path d="m18.27,520.55c-.38-24.15-.75-48.31-1.13-72.46,11.59-49.71,65.71-99.15,125.21-94.13,1.7-.05,3.4-.1,5.1-.15,3.68,0,7.35,0,11.03,0,30.13.5,60.26,1.46,90.39,1.39,57.65-.14,115.31-.87,172.96-1.36,13.09-.05,26.19-.09,39.28-.14,13.81,0,27.63,0,41.44,0,2.33.02,4.65.03,6.98.05,13.82-.03,27.63-.06,41.45-.1,2.32,0,4.65.02,6.97.03,56.86.03,113.71.05,170.57.08,3.67,0,7.34,0,11.02-.01,15.06.36,30.12.73,45.18,1.09,42.88,12.6,83.81,27.98,102.89,73.71,1.48,3.54,1.66,7.63,2.45,11.46,8.96,38.59,5.66,76.19-9.22,112.83-11.71,24.21-27.6,43.47-54.18,53.28-33.11,12.21-66.76,17.71-101.84,14.58-5.24-.47-10.43-2.05-15.64-2.05-81,.06-162.01.3-243.01.5-1.66-.04-3.31-.08-4.96-.12-9.11-.03-18.23-.05-27.34-.08-1.63-.05-3.27-.11-4.9-.16-3.75.06-7.49.12-11.24.18-1.64-.04-3.27-.08-4.91-.12-66.28-.11-132.56-.15-198.83-.38-30.94-.11-61.9-.03-92.79-1.29-9.15-.37-19.79-2.82-26.82-8.17-12.88-9.79-29.69-15.11-40.17-24.48-15.23-13.61-21.97-36.73-32.27-55.83-1.41-2.62-2.45-5.43-3.66-8.16Zm754.14-89.16c-7.38-2.5-14.75-7.14-22.13-7.17-132.79-.44-265.58-.32-398.37-.32-66.4,0-132.79-.25-199.19.21-13.26.09-29.24-2.66-33.85,16.46-23,32.18-24.91,64,4.9,96.33,33.56,0,70.42-.04,107.28,0,160.26.2,320.51.43,480.77.65,6.44,3.75,12.49,9.31,19.42,10.81,10.32,2.25,21.45.58,31.89,2.46,21.66,3.9,33.17-3.75,37.34-26.46,1.24-1.26,2.48-2.52,3.73-3.79,13.36-3.65,9.4-11.79,5.17-19.99-.23-7.33.4-14.82-.86-21.97-3.41-19.33-11.26-35.78-31.87-42.39-1.41-1.62-2.82-3.24-4.22-4.86Z" fill="#010000"/><path d="m410.82,789.54c-26.76,21.52-53.51,43.03-78.07,62.78-10.67-7.23-17.4-12.81-24.99-16.72-13.61-7-15.17-17.86-5.97-27.31,44.16-45.38,89.09-90.02,134.21-134.45,7.74-7.62,15.26-7.18,27.49-1.8,37.03,16.26,59.73,46.7,85.62,74.72,20.95,22.68,43.83,43.56,66.49,65.87-5.16,11.63-10.02,22.59-14.85,33.48-22.48,7.11-39.25-1.89-53.52-19.46-7.59-9.34-15.95-18.6-25.64-25.53-8.31-5.94-19.02-8.51-27.64-12.14,0,42,.78,80.56-.43,119.07-.42,13.28-4.5,26.89-9.2,39.49-5.86,15.72-19,27.82-35.16,20.06-11.67-5.6-25.5-20.3-26.55-32.01-4.32-47.77-4.09-95.95-5.54-143.98,0,0,1.16-.32,1.16-.32,1.22-4.56,2.45-9.12,3.67-13.67-1.02-.49-2.05-.98-3.07-1.47-1.95,2.23-3.9,4.45-5.84,6.68-.71,2.24-1.43,4.49-2.14,6.73Z" fill="#010000"/><path d="m410.82,789.54c.71-2.24,1.43-4.49,2.14-6.73,1.75,2.82,3.5,5.64,5.24,8.46,0,0-1.16.32-1.16.32-2.08-.68-4.15-1.37-6.23-2.06Z"/><path d="m412.8,618.86c1.64.04,3.27.08,4.91.12-1.64-.04-3.27-.08-4.91-.12Z" fill="#aba29d"/><path d="m461.2,619.04c1.65.04,3.31.08,4.96.12-1.65-.04-3.31-.08-4.96-.12Z" fill="#aba29d"/><path d="m428.95,618.8c1.63.05,3.27.11,4.9.16-1.63-.05-3.27-.11-4.9-.16Z" fill="#aba29d"/><path d="m420.63,145.46c-1.12-22.46-3.07-44.92-3.09-67.39-.01-17.1.78-34.59,4.62-51.11,1.52-6.53,11.47-13.24,18.97-15.87,32.11-11.26,46.62-1.86,48.58,31.54,2.15,36.57,3.23,73.21,4,109.83.25,12.14-1.9,24.34-3.09,38.15,34.85-8.14,48.89-34.06,66.16-54.69,12.35-14.76,26.34-11.92,38.78-8.76,5.63,1.43,9.02,16.67,11.06,26.15,4.17,19.45-6.66,30.22-21.72,42.05-26.66,20.94-50,46.07-74.95,69.21-12.63,11.72-24.95,24.04-38.97,33.87-5.98,4.19-18.8,6.6-23.6,3.1-20.28-14.81-39.09-31.72-57.71-48.66-24.19-22-47.89-44.54-71.34-67.32-5.53-5.37-11.61-12.04-13.25-19.09-2.54-10.87-5.72-29.69-1.05-32.48,10.12-6.06,25.01-4.53,38-5.14,3.42-.16,7,3.2,10.51,4.94,5.37,4,10.74,8,16.11,12,0,0-.13-.12-.13-.12,2.71,4.11,5.42,8.21,8.12,12.32,0,0-.14-.16-.14-.16,2.79,4.07,5.57,8.14,8.36,12.21,1.27,1.27,2.53,2.54,3.8,3.82,9.71,6.27,19.42,12.54,31.97,20.64,0-20.05,0-34.55,0-49.04Z" fill="#010000"/><path d="m784.71,354.84c-15.06-.36-30.12-.73-45.18-1.09,15.06.36,30.12.73,45.18,1.09Z" fill="#a69990"/><path d="m550.98,353.66c-13.82.03-27.63.06-41.45.1,13.81-.03,27.63-.06,41.45-.1Z" fill="#a69990"/><path d="m502.55,353.71c-13.81,0-27.63,0-41.44,0,13.81,0,27.63,0,41.44,0Z" fill="#a69990"/><path d="m384.86,170.05c-2.79-4.07-5.57-8.14-8.36-12.21,2.79,4.07,5.57,8.14,8.36,12.21Z" fill="#fefaf5"/><path d="m376.64,158c-2.71-4.11-5.42-8.21-8.12-12.32,2.71,4.11,5.42,8.21,8.12,12.32Z" fill="#fefaf5"/><path d="m147.45,353.82c-1.7.05-3.4.1-5.1.15,1.7-.05,3.4-.1,5.1-.15Z" fill="#a69990"/><path d="m134.29,435.62c-5.14,1.65-10.28,3.3-15.42,4.95,4.61-19.11,20.59-16.37,33.85-16.46,66.39-.47,132.79-.21,199.19-.21,132.79,0,265.58-.12,398.37.32,7.38.02,14.75,4.67,22.13,7.17-6.04.21-12.08.59-18.12.59-198.33.01-396.65-.06-594.98.12-8.34,0-16.68,2.29-25.02,3.52Z" fill="#080000"/><path d="m711.82,537.56c17.43-.21,35.04,1.07,52.21-1.14,12.46-1.61,24.31-7.86,36.44-12.04-4.16,22.71-15.67,30.37-37.34,26.46-10.44-1.88-21.58-.21-31.89-2.46-6.93-1.51-12.98-7.07-19.42-10.81Z" fill="#0d0100"/><path d="m804.19,520.59c1.72-6.66,3.45-13.33,5.17-19.99,4.23,8.2,8.18,16.34-5.17,19.99Z" fill="#0d0100"/><path d="m418.2,791.27c-1.75-2.82-3.5-5.64-5.24-8.46,1.95-2.23,3.9-4.45,5.84-6.68,1.02.49,2.05.98,3.07,1.47-1.22,4.56-2.45,9.12-3.67,13.67Z"/></g></svg>