<?xml version="1.0" encoding="UTF-8"?><svg id="App_Icon_Kit_A" xmlns="http://www.w3.org/2000/svg" xmlns:xlink="http://www.w3.org/1999/xlink" viewBox="0 0 2984.67 1171.37"><defs><linearGradient id="linear-gradient" x1="68.08" y1="955.92" x2="955.92" y2="68.08" gradientUnits="userSpaceOnUse"><stop offset="0" stop-color="#fbb03b"/><stop offset="1" stop-color="#ed1e79"/></linearGradient><symbol id="Icon" viewBox="0 0 1024 1024"><path id="App_Icon_Placeholder" d="m356.99,0h310c102.81,0,154.19,0,209.53,17.49,60.42,21.99,108,69.58,129.98,129.99,17.5,55.34,17.5,106.73,17.5,209.53v309.98c0,102.8,0,154.19-17.5,209.53-21.98,60.42-69.57,108-129.98,129.98-55.33,17.5-106.72,17.5-209.53,17.5h-310c-102.79,0-154.18,0-209.51-17.5-60.42-21.98-108-69.57-129.98-129.98C0,821.18,0,769.79,0,666.99v-309.98c0-102.79,0-154.18,17.5-209.53C39.48,87.07,87.07,39.48,147.48,17.49,202.82,0,254.2,0,356.99,0h0" fill="url(#linear-gradient)"/><path d="m732.9,590.41c-19.84-24.8-31.39-54.55-31.39-85.54v-119.02c0-82.14-60.65-109.34-144.7-115.98.83-3.37,1.47-6.87,1.47-10.48,0-26.02-22.66-47.11-50.73-47.11s-50.78,21.09-50.78,47.11c0,3.34-.1,6.6.61,9.74-83.79,5.41-147.87,32.23-147.87,115.48v119.02c0,30.99-10.65,59.51-29.25,83.07,85.54-18.6,202.14-19.84,221.98-19.84,21.08,0,146.35,1.24,230.66,23.56Z" fill="#000"/><path d="m792.8,658.6c0-32.18-127.67-58.27-285.15-58.27s-285.15,26.09-285.15,58.27c0,28.36,99.15,51.98,230.48,57.2-2.33,5.36-3.6,11.15-3.6,17.19,0,27.39,26.09,49.59,58.27,49.59s58.27-22.2,58.27-49.59c0-6.04-1.27-11.83-3.6-17.19,131.33-5.21,230.48-28.84,230.48-57.2Z" fill="#000"/></symbol></defs><g id="Notifications_and_Activity_-_Preview"><g id="Loading"><use width="1024" height="1024" transform="translate(2494.74 1051.37) scale(.12)" xlink:href="#Icon"/><g id="App_Icon_Loading_Indicator_Overlay" fill="none" opacity=".71"><path d="m2553.74,1077.63c-18.23,0-33,14.77-33,33s14.77,33,33,33,33-14.77,33-33c0-1.99-.19-3.94-.52-5.83l-32.48,5.83v-33Z"/><path d="m2612.69,1068.65c-2.58-7.08-8.15-12.66-15.23-15.23-6.48-2.05-12.51-2.05-24.55-2.05h-36.33c-12.05,0-18.07,0-24.55,2.05-7.08,2.58-12.66,8.15-15.23,15.23-2.05,6.49-2.05,12.51-2.05,24.55v36.33c0,12.05,0,18.07,2.05,24.55,2.58,7.08,8.15,12.66,15.23,15.23,6.48,2.05,12.51,2.05,24.55,2.05h36.33c12.05,0,18.07,0,24.55-2.05,7.08-2.58,12.66-8.15,15.23-15.23,2.05-6.48,2.05-12.51,2.05-24.55v-36.33c0-12.05,0-18.07-2.05-24.55Zm-57.95,81.72c-21.54,0-39-17.46-39-39s17.46-39,39-39,39,17.46,39,39-17.46,39-39,39Z"/></g></g><g id="Two_Digit_Badge"><use width="1024" height="1024" transform="translate(2274.24 1051) scale(.12)" xlink:href="#Icon"/><g id="Badge"><rect id="Badge_Background" x="2349.24" y="1030.26" width="64" height="48" rx="24" ry="24" fill="#000"/><text transform="translate(2362.62 1065.53)" fill="#000" font-family="OpenSans, &apos;Open Sans&apos;" font-size="32"><tspan x="0" y="0">34</tspan></text></g></g><g id="One_Digit_Badge"><use width="1024" height="1024" transform="translate(2053.24 1050.85) scale(.12)" xlink:href="#Icon"/><g id="Badge-2"><g id="Badge_Background-2"><rect x="2146.24" y="1030.26" width="47" height="47" rx="22.25" ry="22.25" fill="#000"/></g><text transform="translate(2160.77 1065.53)" fill="#000" font-family="OpenSans, &apos;Open Sans&apos;" font-size="32" letter-spacing=".02em"><tspan x="0" y="0">1</tspan></text></g></g><text transform="translate(2059.24 957.07)" font-family="OpenSans, &apos;Open Sans&apos;" font-size="33"><tspan x="0" y="0">Notifications and Activity</tspan></text></g><g id="Settings_Icon_-_Preview_Sizes"><g id="_29"><use width="1024" height="1024" transform="translate(2669.67 692) scale(.03)" xlink:href="#Icon"/><text transform="translate(2672.38 765.2)" font-family="OpenSans, &apos;Open Sans&apos;" font-size="20"><tspan x="0" y="0">29</tspan></text></g><g id="_58"><use width="1024" height="1024" transform="translate(2510.67 677.03) scale(.06)" xlink:href="#Icon"/><text transform="translate(2525.67 779.73)" font-family="OpenSans, &apos;Open Sans&apos;" font-size="20"><tspan x="0" y="0">58</tspan></text></g><g id="_87"><use width="1024" height="1024" transform="translate(2300.67 662.97) scale(.08)" xlink:href="#Icon"/><text transform="translate(2332.52 794.23)" font-family="OpenSans, &apos;Open Sans&apos;" font-size="20"><tspan x="0" y="0">87</tspan></text></g><text id="Settings_icon_text" transform="translate(2041.5 681.5)" font-family="OpenSans, &apos;Open Sans&apos;" font-size="33"><tspan x="0" y="0">Settings</tspan><tspan x="0" y="39.6">icon </tspan></text></g><g id="Spotlight_Icon_-_Preview_Sizes"><g id="_29-2"><use width="1024" height="1024" transform="translate(2929.7 396) scale(.03)" xlink:href="#Icon"/><text transform="translate(2929.3 469.07)" font-family="OpenSans, &apos;Open Sans&apos;" font-size="19.96"><tspan x="0" y="0">29</tspan></text></g><g id="_40"><use width="1024" height="1024" transform="translate(2839.67 390) scale(.04)" xlink:href="#Icon"/><text transform="translate(2844.67 474.7)" font-family="OpenSans, &apos;Open Sans&apos;" font-size="20"><tspan x="0" y="0">40</tspan></text></g><g id="_58-2"><use width="1024" height="1024" transform="translate(2658.67 381.11) scale(.06)" xlink:href="#Icon"/><text transform="translate(2670.88 483.81)" font-family="OpenSans, &apos;Open Sans&apos;" font-size="20"><tspan x="0" y="0">58</tspan></text></g><g id="_80"><use width="1024" height="1024" transform="translate(2499.67 370) scale(.08)" xlink:href="#Icon"/><text transform="translate(2525.67 493.7)" font-family="OpenSans, &apos;Open Sans&apos;" font-size="20"><tspan x="0" y="0">80</tspan></text></g><g id="_120"><use width="1024" height="1024" transform="translate(2283.67 350) scale(.12)" xlink:href="#Icon"/><text transform="translate(2318.02 513.77)" font-family="OpenSans, &apos;Open Sans&apos;" font-size="20"><tspan x="0" y="0">120</tspan></text></g><text id="Spotlight_icon_text" transform="translate(2042.76 376.02)" font-family="OpenSans, &apos;Open Sans&apos;" font-size="33"><tspan x="0" y="0">Spotlight </tspan><tspan x="0" y="39.6">Icon </tspan></text></g><g id="App_Icon_-_Preview_Sizes"><g id="_57"><use width="1024" height="1024" transform="translate(2927.67 62) scale(.06)" xlink:href="#Icon"/><text transform="translate(2941.28 164.2)" font-family="OpenSans, &apos;Open Sans&apos;" font-size="20"><tspan x="0" y="0">57</tspan></text></g><g id="_60"><use width="1024" height="1024" transform="translate(2833.67 60) scale(.06)" xlink:href="#Icon"/><text transform="translate(2848.67 164.7)" font-family="OpenSans, &apos;Open Sans&apos;" font-size="20"><tspan x="0" y="0">60</tspan></text></g><g id="_114"><use width="1024" height="1024" transform="translate(2650.79 33) scale(.11)" xlink:href="#Icon"/><text transform="translate(2690.92 191.38)" font-family="OpenSans, &apos;Open Sans&apos;" font-size="19.96"><tspan x="0" y="0">114</tspan></text></g><g id="_120-2"><use width="1024" height="1024" transform="translate(2495.67 30) scale(.12)" xlink:href="#Icon"/><text transform="translate(2535.67 193.7)" font-family="OpenSans, &apos;Open Sans&apos;" font-size="20"><tspan x="0" y="0">120</tspan></text></g><g id="_180"><text transform="translate(2318.02 223.77)" font-family="OpenSans, &apos;Open Sans&apos;" font-size="20"><tspan x="0" y="0">180</tspan></text></g><text id="App_icon_text" transform="translate(2039.76 37.5)" font-family="OpenSans, &apos;Open Sans&apos;" font-size="33"><tspan x="0" y="0">App Icon </tspan></text><use width="1024" height="1024" transform="translate(2253.67) scale(.18)" xlink:href="#Icon"/></g><g id="App_Icon_and_Badge_-_Main"><g id="PXGw4D.tif"><path d="m92.91,282.51c.34,11.16.28,22.35,1.29,33.45.25,2.72,3.46,6.13,6.17,7.44,3.76,1.8,6.81-1.01,8.17-4.66,1.09-2.93,2.04-6.09,2.14-9.18.28-8.95.1-17.91.1-27.66,2,.84,4.49,1.44,6.42,2.82,2.25,1.61,4.19,3.76,5.96,5.93,3.32,4.08,7.21,6.17,12.44,4.52,1.12-2.53,2.25-5.08,3.45-7.78-5.26-5.18-10.58-10.04-15.45-15.3-6.01-6.51-11.29-13.58-19.89-17.36-2.84-1.25-4.59-1.35-6.39.42-10.48,10.32-20.92,20.69-31.18,31.24-2.14,2.2-1.77,4.72,1.39,6.35,1.76.91,3.33,2.2,5.81,3.88,5.71-4.59,11.92-9.59,18.14-14.58.48.16.97.32,1.45.48Z" fill="#fefefe"/><path d="m.26,219.54c-.09-5.61-.17-11.22-.26-16.83,2.69-11.55,15.27-23.04,29.09-21.87.4-.01.79-.02,1.19-.03.85,0,1.71,0,2.56,0,7,.12,14,.34,21,.32,13.39-.03,26.79-.2,40.18-.32,3.04-.01,6.08-.02,9.13-.03,3.21,0,6.42,0,9.63,0,.54,0,1.08,0,1.62.01,3.21,0,6.42-.01,9.63-.02.54,0,1.08,0,1.62,0,13.21,0,26.42.01,39.63.02.85,0,1.71,0,2.56,0,3.5.08,7,.17,10.5.25,9.96,2.93,19.47,6.5,23.9,17.13.34.82.39,1.77.57,2.66,2.08,8.97,1.31,17.7-2.14,26.22-2.72,5.62-6.41,10.1-12.59,12.38-7.69,2.84-15.51,4.11-23.66,3.39-1.22-.11-2.42-.48-3.63-.48-18.82.01-37.64.07-56.46.12-.38,0-.77-.02-1.15-.03-2.12,0-4.24-.01-6.35-.02-.38-.01-.76-.03-1.14-.04-.87.01-1.74.03-2.61.04-.38,0-.76-.02-1.14-.03-15.4-.03-30.8-.03-46.2-.09-7.19-.03-14.38,0-21.56-.3-2.13-.09-4.6-.66-6.23-1.9-2.99-2.28-6.9-3.51-9.33-5.69-3.54-3.16-5.1-8.53-7.5-12.97-.33-.61-.57-1.26-.85-1.9Zm175.21-20.72c-1.71-.58-3.43-1.66-5.14-1.67-30.85-.1-61.7-.07-92.56-.07-15.43,0-30.85-.06-46.28.05-3.08.02-6.79-.62-7.86,3.82-5.34,7.48-5.79,14.87,1.14,22.38,7.8,0,16.36,0,24.92,0,37.23.05,74.47.1,111.7.15,1.5.87,2.9,2.16,4.51,2.51,2.4.52,4.98.13,7.41.57,5.03.91,7.71-.87,8.67-6.15.29-.29.58-.59.87-.88,3.1-.85,2.18-2.74,1.2-4.64-.05-1.7.09-3.44-.2-5.1-.79-4.49-2.62-8.31-7.41-9.85-.33-.38-.65-.75-.98-1.13Z" fill="#010000"/><path d="m91.46,282.03c-6.22,5-12.43,10-18.14,14.58-2.48-1.68-4.04-2.98-5.81-3.88-3.16-1.63-3.52-4.15-1.39-6.35,10.26-10.54,20.7-20.91,31.18-31.24,1.8-1.77,3.55-1.67,6.39-.42,8.6,3.78,13.88,10.85,19.89,17.36,4.87,5.27,10.18,10.12,15.45,15.3-1.2,2.7-2.33,5.25-3.45,7.78-5.22,1.65-9.12-.44-12.44-4.52-1.76-2.17-3.7-4.32-5.96-5.93-1.93-1.38-4.42-1.98-6.42-2.82,0,9.76.18,18.72-.1,27.66-.1,3.09-1.05,6.25-2.14,9.18-1.36,3.65-4.41,6.46-8.17,4.66-2.71-1.3-5.92-4.72-6.17-7.44-1-11.1-.95-22.29-1.29-33.45,0,0,.27-.07.27-.07.28-1.06.57-2.12.85-3.18-.24-.11-.48-.23-.71-.34-.45.52-.9,1.03-1.36,1.55-.17.52-.33,1.04-.5,1.56Z" fill="#010000"/><path d="m91.46,282.03c.17-.52.33-1.04.5-1.56.41.66.81,1.31,1.22,1.97,0,0-.27.07-.27.07-.48-.16-.97-.32-1.45-.48Z"/><path d="m91.93,242.38c.38,0,.76.02,1.14.03-.38,0-.76-.02-1.14-.03Z" fill="#aba29d"/><path d="m103.17,242.42c.38,0,.77.02,1.15.03-.38,0-.77-.02-1.15-.03Z" fill="#aba29d"/><path d="m95.68,242.36c.38.01.76.03,1.14.04-.38-.01-.76-.03-1.14-.04Z" fill="#aba29d"/><path d="m93.74,132.39c-.26-5.22-.71-10.44-.72-15.66,0-3.97.18-8.04,1.07-11.87.35-1.52,2.66-3.08,4.41-3.69,7.46-2.62,10.83-.43,11.29,7.33.5,8.5.75,17.01.93,25.52.06,2.82-.44,5.65-.72,8.86,8.1-1.89,11.36-7.91,15.37-12.71,2.87-3.43,6.12-2.77,9.01-2.03,1.31.33,2.1,3.87,2.57,6.08.97,4.52-1.55,7.02-5.05,9.77-6.19,4.86-11.62,10.7-17.41,16.08-2.93,2.72-5.8,5.59-9.05,7.87-1.39.97-4.37,1.53-5.48.72-4.71-3.44-9.08-7.37-13.41-11.31-5.62-5.11-11.13-10.35-16.58-15.64-1.28-1.25-2.7-2.8-3.08-4.44-.59-2.53-1.33-6.9-.24-7.55,2.35-1.41,5.81-1.05,8.83-1.19.79-.04,1.63.74,2.44,1.15,1.25.93,2.5,1.86,3.74,2.79,0,0-.03-.03-.03-.03.63.95,1.26,1.91,1.89,2.86,0,0-.03-.04-.03-.04.65.95,1.29,1.89,1.94,2.84.29.3.59.59.88.89,2.26,1.46,4.51,2.91,7.43,4.79,0-4.66,0-8.03,0-11.39Z" fill="#010000"/><path d="m178.33,181.04c-3.5-.08-7-.17-10.5-.25,3.5.08,7,.17,10.5.25Z" fill="#a69990"/><path d="m124.03,180.76c-3.21,0-6.42.01-9.63.02,3.21,0,6.42-.01,9.63-.02Z" fill="#a69990"/><path d="m112.78,180.78c-3.21,0-6.42,0-9.63,0,3.21,0,6.42,0,9.63,0Z" fill="#a69990"/><path d="m85.43,138.1c-.65-.95-1.29-1.89-1.94-2.84.65.95,1.29,1.89,1.94,2.84Z" fill="#fefaf5"/><path d="m83.52,135.3c-.63-.95-1.26-1.91-1.89-2.86.63.95,1.26,1.91,1.89,2.86Z" fill="#fefaf5"/><path d="m30.28,180.8c-.4.01-.79.02-1.19.03.4-.01.79-.02,1.19-.03Z" fill="#a69990"/><path d="m27.22,199.81c-1.19.38-2.39.77-3.58,1.15,1.07-4.44,4.78-3.8,7.86-3.82,15.43-.11,30.85-.05,46.28-.05,30.85,0,61.7-.03,92.56.07,1.72,0,3.43,1.09,5.14,1.67-1.4.05-2.81.14-4.21.14-46.08,0-92.16-.01-138.23.03-1.94,0-3.87.53-5.81.82Z" fill="#080000"/><path d="m161.4,223.49c4.05-.05,8.14.25,12.13-.27,2.89-.37,5.65-1.83,8.47-2.8-.97,5.28-3.64,7.06-8.67,6.15-2.43-.44-5.01-.05-7.41-.57-1.61-.35-3.01-1.64-4.51-2.51Z" fill="#0d0100"/><path d="m182.86,219.55c.4-1.55.8-3.1,1.2-4.64.98,1.91,1.9,3.8-1.2,4.64Z" fill="#0d0100"/><path d="m93.18,282.44c-.41-.66-.81-1.31-1.22-1.97.45-.52.9-1.03,1.36-1.55.24.11.48.23.71.34-.28,1.06-.57,2.12-.85,3.18Z"/></g><g id="EwdyWD.tif"><path d="m909.55,755.81c-33.74-.11-67.49-.22-101.23-.33-1.75.66-3.5,1.32-5.26,1.98-48.23-7.13-83.59-31.11-101.68-77.7-.13-5.4-.26-10.79-.4-16.19.88-5.33,1.75-10.66,2.63-15.98.39-2.73.79-5.46,1.18-8.19,1.05-9.02,2.09-18.04,3.26-28.12-6.31,1.23-10.85,2.11-15.39,2.99,0-15.06,0-30.11,0-45.17,2.71,1.37,5.41,2.75,8.12,4.12.44,8.82.89,17.65,1.33,26.47,2.13-.21,4.27-.41,6.4-.62-1.17-12.09-3.25-24.17-3.35-36.26-.39-48.35,0-96.72-.36-145.07-.05-7.08-2.57-14.13-3.95-21.2,0-2.69.01-5.37.02-8.06,1.85-13.36,16.06-29.46-8.22-37.01,0-2.74,0-5.47,0-8.21,1.39-5.58,2.78-11.15,4.17-16.73,2.52-1.5,5.05-3,7.57-4.51-2.54-1.22-5.08-2.44-7.62-3.66.09-1.33.1-2.67.04-4,2.67-1.2,6.94-1.74,7.76-3.7,6.16-14.92,11.64-30.12,17.33-45.23,26.77-28.26,62.92-35.78,98.63-40.48,38.1-5.02,76.91-4.67,119.21-6.86,1.18,23.44,2.5,44.53,3.2,65.64.42,12.64-4.58,18.79-19.05,18.85-33.1.14-66.25,1.42-99.25,3.98-30.88,2.4-45.72,19.59-45.67,51.25.14,82.62.79,165.24,1.24,247.86-.24,4.31-.48,8.62-.72,12.94,4.19,14.4,6.4,29.82,13.15,42.89,6.06,11.73,16.25,19.68,32.88,18.97,38.2-1.64,76.51-.52,117.52-.52,0,22.87.54,45.16-.2,67.41-.45,13.65-11.24,10.55-19.85,10.08-4.48-.54-8.96-1.08-13.45-1.63Z"/><path d="m1595.38,692.09c-1.05.14-2.11.26-3.17.37-5.41-1.46-10.82-2.93-15.35-4.16,3.87-25.6,9.93-48.34,10.29-71.16,1.23-79.2.17-158.43.72-237.65.11-16.51-1.22-34.78,17.13-44.87,2.42.14,4.84.29,7.26.43v12.32c-2.56,1.85-7.02,3.39-7.38,5.6-2.16,13.33-4.84,26.82-4.69,40.23.86,73.9,2.33,147.8,4.2,221.69.13,5.33,5.13,10.54,7.87,15.8v8.21c-2.79,8.19-5.59,16.39-8.38,24.58-1.32,5.53-2.64,11.07-3.95,16.6-.78,1.18-1.57,2.37-2.35,3.55-.73,2.82-1.45,5.64-2.18,8.46Z"/><path d="m1612.25,630.69c-2.74-5.27-7.73-10.47-7.87-15.8-1.87-73.89-3.34-147.78-4.2-221.69-.16-13.41,2.52-26.9,4.69-40.23.36-2.21,4.82-3.75,7.38-5.6v283.32Z"/><path d="m700.89,388.49c0,2.69-.01,5.37-.02,8.06-.03,58.89-.05,117.79-.08,176.68-2.71-1.37-5.41-2.75-8.12-4.12,0-60.22,0-120.45,0-180.67,2.74.02,5.48.04,8.22.06Z"/><path d="m721.91,265.44c-5.69,15.11-11.17,30.31-17.33,45.23-.81,1.97-5.09,2.5-7.76,3.7-1.39-4.06-2.77-8.11-4.16-12.17,0-10.95,0-21.9,0-32.85,9.75-1.31,19.5-2.61,29.24-3.92Z"/><path d="m700.89,388.49c-2.74-.02-5.48-.04-8.22-.06v-36.95c24.28,7.55,10.07,23.65,8.22,37.01Z"/><path d="m1595.38,692.09c.73-2.82,1.45-5.64,2.18-8.46.78-1.18,1.57-2.37,2.35-3.55,1.32-5.53,2.64-11.07,3.95-16.6,2.79.02,5.59.04,8.38.06v28.74c-5.62-.06-11.25-.13-16.87-.19Z"/><path d="m692.67,614.27c4.54-.88,9.08-1.77,15.39-2.99-1.17,10.08-2.21,19.1-3.26,28.12-4.04-.16-8.08-.32-12.13-.49,0-8.21,0-16.42,0-24.64Z"/><path d="m1599.77,294.3c4.16-2.84,8.32-5.68,12.47-8.52v16.42c-2.67,2.16-5.35,4.33-8.02,6.49-1.48-4.8-2.97-9.6-4.45-14.4Z"/><path d="m703.62,647.58c-.88,5.33-1.75,10.66-2.63,15.98-2.77,0-5.55-.02-8.32-.03,0-4.11,0-8.21,0-12.32,2.15-1.36,4.3-2.72,6.45-4.08,1.5.15,3,.3,4.49.44Z"/><path d="m1604.22,308.69c2.67-2.16,5.35-4.33,8.02-6.49v16.42c-2.53-.05-5.05-.1-7.58-.15-.15-3.26-.3-6.52-.45-9.78Z"/><path d="m1612.25,663.54c-2.79-.02-5.59-.04-8.38-.06,2.79-8.19,5.59-16.39,8.38-24.58v24.64Z"/><path d="m692.67,663.54c2.77,0,5.55.02,8.32.03.13,5.4.26,10.79.4,16.19-2.9.07-5.81.14-8.71.21v-16.42Z"/><path d="m703.62,647.58c-1.5-.15-3-.3-4.5-.44-2.15,0-4.3-.02-6.45-.02v-8.21c4.04.16,8.08.32,12.13.49-.39,2.73-.79,5.46-1.18,8.19Z"/><path d="m696.84,326.54c-1.39,5.58-2.78,11.15-4.17,16.73,0-6.84,0-13.69,0-20.53,1.07.15,2.15.3,3.22.45.61,1.04.93,2.16.95,3.36Z"/><path d="m695.89,323.18c-1.07-.15-2.15-.3-3.22-.45,0-6.84,0-13.69,0-20.53,1.39,4.06,2.77,8.11,4.16,12.17.07,1.34.05,2.67-.04,4-.3,1.6-.6,3.2-.9,4.8Z"/><path d="m1612.25,335.05c-2.42-.14-4.84-.29-7.26-.43-.06-2.64-.13-5.29-.19-7.93,2.48.05,4.97.1,7.45.15v8.21Z"/><path d="m1612.25,326.84c-2.48-.05-4.97-.1-7.45-.15-.04-2.74-.08-5.47-.12-8.21,2.53.05,5.05.1,7.58.15v8.21Z"/><path d="m692.67,647.11c2.15,0,4.3.01,6.45.02-2.15,1.36-4.3,2.72-6.45,4.08,0-1.37,0-2.74,0-4.11Z"/><path d="m1604.67,318.48c.04,2.74.08,5.47.12,8.21.06,2.64.13,5.29.19,7.93-18.35,10.09-17.01,28.36-17.13,44.87-.55,79.22.51,158.45-.72,237.65-.35,22.82-6.41,45.56-10.29,71.16,4.54,1.23,9.94,2.69,15.35,4.16-7.21,10.36-12.46,23.26-21.98,30.63-38.25,29.62-83.4,36.15-130.39,34.96-19.83-.5-39.75-1.15-59.49.24-16.91,1.2-23.21-5.38-22.76-21.58.51-18.31.12-36.64.12-56.76,36.76,0,72.14.61,107.48-.17,36.69-.81,47.96-14.15,53.12-48.75.58-3.13,1.16-6.26,1.74-9.39.02-2.18.05-4.36.07-6.53.62-3.3,1.79-6.6,1.79-9.9.09-79.01.1-158.02-.12-237.03-.01-4.33-2.25-8.65-3.46-12.98-1.38-36.74-18.01-52.83-55.06-52.96-33.29-.12-66.58-.02-102.69-.02v-82.05c42.66,0,83.42-4.55,122.66,1.18,46.21,6.76,88.75,26.13,113.15,70.99.53.98,2.24,1.33,3.39,1.97,1.48,4.8,2.97,9.6,4.45,14.39.15,3.26.3,6.52.44,9.78Z"/><path d="m1111.39,212.63c0-21.89-.03-43.77.01-65.66.02-12.96-6.49-16.92-16.09-8.77-16.74,14.21-32.22,29.93-48.03,45.22-14.44,13.96-36.45,17.07-46.35,6.24-7.74-8.47-5.52-44.16,3.45-53.27,12.11-12.3,23.97-24.87,36.6-36.62,18.95-17.62,38.58-34.49,57.68-51.95,5.26-4.81,9.63-10.58,14.4-15.92,19.49-21.85,44.84-24.26,66.48-4.04,39.98,37.34,78.98,75.72,118.24,113.82,12.52,12.15,15.19,27.28,7.4,42.28-8.75,16.85-26.23,12.63-40.23,10.72-7.28-1-14.1-9.62-19.96-15.9-9.76-10.46-17.75-22.71-28.17-32.38-5.07-4.71-13.95-5.3-21.11-7.76-3.09,10.36-8.53,20.64-8.87,31.09-1.38,42.35.89,84.94-2.99,127-1,10.87-17.86,24.54-30.29,29.01-15.69,5.65-34.93-10.82-37.58-30.32-3.73-27.34-4.48-55.09-6.5-82.66.64-.04,1.27-.09,1.91-.13Z"/><path d="m1114.81,827.74c0-5.45.01-10.9.02-16.35.01-2.77.03-5.53.04-8.3.43-2.73.87-5.46,1.3-8.19.47-.4,1.4-.94,1.33-1.18-.3-1.02-.89-1.95-1.38-2.91.02-32.85.04-65.71.05-98.56.47-.39,1.4-.92,1.33-1.16-.28-1.02-.86-1.95-1.33-2.91,1.99-22.21,8.02-27.69,31.71-28.89,25.66-1.3,35.95,3.89,36.84,25.59,2.06,50.51,1.19,101.14,2.13,151.71.11,6,4.06,11.93,6.06,17.44,22.62-20.89,43.33-41.73,65.9-60.3,16.04-13.2,29.78-8.98,46.97,8.31,14.07,14.15,3.04,23.14-5.77,31.89-27.31,27.12-55.18,53.68-82.85,80.43-12.88,12.45-25.75,24.9-38.76,37.21-17.76,16.8-38.78,16.27-56.82-.61-37.6-35.17-75.85-69.64-112.86-105.41-8.18-7.9-16.87-19.88-17.16-30.21-.41-14.17,13.69-22.83,27.07-23.89,14.89-1.18,32.04-6.5,41.48,14.76,5.12,11.54,17.19,19.98,26.13,29.82,5.62,4.08,10.95,8.68,16.96,12.06,3.38,1.9,10.55,3.52,11.39,2.24,2.44-3.74,3.19-8.97,3.36-13.67.11-2.93-2.01-5.94-3.13-8.92Z"/><path d="m1518.32,355.2c1.2,4.33,3.44,8.65,3.46,12.98.23,79.01.21,158.02.12,237.03,0,3.3-1.17,6.6-1.79,9.9-.75-8.03-2.14-16.07-2.14-24.1-.01-78.6.21-157.2.36-235.81Z"/><path d="m1114.81,827.74c1.12,2.98,3.24,5.99,3.13,8.92-.18,4.7-.92,9.93-3.36,13.67-.84,1.28-8.01-.34-11.39-2.24-6.01-3.38-11.34-7.97-16.96-12.06,9.52-2.77,19.05-5.53,28.57-8.3Z"/><path d="m1114.87,803.09c-.01,2.77-.03,5.53-.04,8.3-1.97-1.39-3.93-2.78-5.9-4.16,1.98-1.38,3.96-2.76,5.94-4.14Z"/><path d="m909.55,755.81c4.48.54,8.96,1.08,13.45,1.63-4.48-.54-8.96-1.08-13.45-1.63Z"/><path d="m779.51,618.61c.24-4.31.48-8.62.72-12.94-.24,4.31-.48,8.62-.72,12.94Z"/><path d="m1520.04,621.64c-.58,3.13-1.16,6.26-1.74,9.39.58-3.13,1.16-6.26,1.74-9.39Z"/><path d="m1116.17,688.18c.47.96,1.05,1.9,1.33,2.91.07.25-.86.77-1.33,1.16,0-1.36,0-2.72,0-4.07Z"/><path d="m803.06,757.46c1.75-.66,3.5-1.32,5.26-1.98-1.75.66-3.5,1.32-5.26,1.98Z"/><path d="m1116.12,790.82c.49.96,1.08,1.89,1.38,2.91.07.24-.86.78-1.33,1.18-.02-1.36-.04-2.72-.05-4.09Z"/><path d="m700.79,573.22c.03-58.89.05-117.78.08-176.68,1.38,7.06,3.9,14.12,3.95,21.2.36,48.36-.04,96.72.36,145.07.1,12.1,2.18,24.18,3.35,36.26-2.13.21-4.27.41-6.4.62-.44-8.82-.89-17.65-1.33-26.47Z"/><path d="m695.89,323.18c.3-1.6.6-3.2.9-4.8,2.54,1.22,5.08,2.44,7.62,3.66-2.52,1.5-5.05,3-7.57,4.51-.02-1.2-.34-2.32-.95-3.36Z"/><path d="m1599.91,680.08c-.78,1.19-1.57,2.37-2.35,3.55.78-1.19,1.57-2.37,2.35-3.55Z"/></g></g></svg>